<svg width="32" height="32" viewBox="0 0 32 32" fill="white" xmlns="http://www.w3.org/2000/svg">
<path d="M19.3956 9.61778L16.8889 7.11111L8 16L16.8889 24.8889L19.3956 22.3822L14.8089 17.7778L32 17.7778V14.2222L14.8089 14.2222L19.3956 9.61778ZM3.55555 32L28.4444 32C30.4178 32 32 30.4 32 28.4444L32 21.3333H28.4444L28.4444 28.4444L3.55555 28.4444L3.55555 3.55555L28.4444 3.55555L28.4444 10.6667H32L32 3.55555C32 1.6 30.4178 -1.90735e-06 28.4444 -1.90735e-06L3.55555 -1.90735e-06C1.6 -1.90735e-06 -1.90735e-06 1.6 -1.90735e-06 3.55555L-1.90735e-06 28.4444C-1.90735e-06 30.4 1.6 32 3.55555 32Z" fill="white"/>
</svg>
