<svg width="26" height="20" viewBox="0 0 26 20" fill="none" xmlns="http://www.w3.org/2000/svg">
<path d="M19.9375 7.25C20.1429 7.25 20.3483 7.26208 20.5417 7.28625V2.25958C20.5417 1.015 19.5267 0 18.2821 0H2.25958C1.015 0 0 1.015 0 2.25958V14.6571C0 15.9017 1.015 16.9167 2.25958 16.9167H14.0167C13.5575 16.0104 13.2917 14.9833 13.2917 13.8958C13.2917 10.2225 16.2642 7.25 19.9375 7.25ZM10.15 9.66667L2.41667 5.06292V2.41667H2.69458L10.1621 6.86333L17.8108 2.41667H18.125V5.02667L10.15 9.66667Z" fill="black"/>
<path d="M20.5416 9.6665L18.8378 11.3703L20.747 13.2915H15.7083V15.7082H20.747L18.8378 17.6294L20.5416 19.3332L25.3749 14.4998L20.5416 9.6665Z" fill="black"/>
</svg>
